<?xml version="1.0" encoding="UTF-8"?>
<svg id="Capa_1" data-name="Capa 1" xmlns="http://www.w3.org/2000/svg" viewBox="0 0 15 15">
  <defs>
    <style>
      .cls-1 {
        fill: #1e4fad;
      }

      .cls-1, .cls-2 {
        stroke-width: 0px;
      }

      .cls-2 {
        fill: #fff;
        fill-rule: evenodd;
      }
    </style>
  </defs>
  <circle class="cls-1" cx="7.5" cy="7.5" r="7.5"/>
  <path class="cls-2" d="m8.46,4.72c.27,0,.55,0,.82,0h.11v-1.42c-.15-.01-.3-.04-.45-.04-.28-.01-.56-.03-.84-.02-.43,0-.83.11-1.19.37-.41.29-.63.7-.71,1.18-.04.2-.04.41-.05.61,0,.32,0,.64,0,.96v.12h-1.36v1.58h1.35v3.98h1.65v-3.98h1.35c.07-.53.14-1.05.21-1.59-.11,0-.21,0-.3,0-.38,0-1.26,0-1.26,0,0,0,0-.79.01-1.13.01-.47.29-.61.66-.62Z"/>
</svg>