<?xml version="1.0" encoding="UTF-8"?>
<svg id="Capa_1" data-name="Capa 1" xmlns="http://www.w3.org/2000/svg" xmlns:xlink="http://www.w3.org/1999/xlink" viewBox="0 0 15 15">
  <defs>
    <style>
      .cls-1 {
        fill: url(#linear-gradient);
      }

      .cls-1, .cls-2 {
        stroke-width: 0px;
      }

      .cls-2 {
        fill: #fff;
      }
    </style>
    <linearGradient id="linear-gradient" x1="14.82" y1="-1.51" x2="2.81" y2="13.28" gradientUnits="userSpaceOnUse">
      <stop offset=".01" stop-color="#3542e0"/>
      <stop offset=".17" stop-color="#3741de"/>
      <stop offset=".27" stop-color="#3f3fda"/>
      <stop offset=".36" stop-color="#4e3cd2"/>
      <stop offset=".43" stop-color="#6237c7"/>
      <stop offset=".5" stop-color="#7d31b9"/>
      <stop offset=".56" stop-color="#9d29a7"/>
      <stop offset=".62" stop-color="#c32193"/>
      <stop offset=".62" stop-color="#c82091"/>
      <stop offset=".76" stop-color="#f62b37"/>
      <stop offset="1" stop-color="#ffc658"/>
    </linearGradient>
  </defs>
  <circle class="cls-1" cx="7.5" cy="7.5" r="7.5"/>
  <path class="cls-2" d="m11.49,5.54c-.05-.52-.25-.99-.64-1.36-.41-.39-.91-.56-1.46-.59-.93-.05-3.15-.08-3.93.04-.89.14-1.47.66-1.72,1.54-.19.68-.15,3.79-.04,4.46.15.91.69,1.5,1.6,1.73.63.16,3.71.14,4.4.03.91-.15,1.5-.68,1.74-1.59.18-.69.12-3.65.05-4.27Zm-.73,3.97c-.11.69-.57,1.12-1.26,1.2-.64.07-3.5.11-4.1-.06-.57-.16-.89-.55-.99-1.12-.09-.55-.11-3.28,0-4.01.1-.69.57-1.12,1.26-1.19.7-.08,3.24-.09,3.91.02.69.11,1.12.57,1.2,1.27.07.65.09,3.2-.02,3.9Zm-3.18-4.03c-1.13,0-2.04.91-2.04,2.04,0,1.13.91,2.04,2.04,2.04s2.04-.91,2.04-2.04c0-1.13-.91-2.04-2.04-2.04Zm-.01,3.35c-.73,0-1.31-.6-1.31-1.33,0-.73.6-1.31,1.33-1.31.73,0,1.31.6,1.31,1.33,0,.73-.6,1.31-1.33,1.31Zm2.61-3.43c0,.26-.21.48-.48.48-.26,0-.48-.21-.48-.48,0-.26.21-.48.48-.48.26,0,.48.21.48.48Z"/>
  <path class="cls-2" d="m11.49,5.54c-.05-.52-.25-.99-.64-1.36-.41-.39-.91-.56-1.46-.59-.93-.05-3.15-.08-3.93.04-.89.14-1.47.66-1.72,1.54-.19.68-.15,3.79-.04,4.46.15.91.69,1.5,1.6,1.73.63.16,3.71.14,4.4.03.91-.15,1.5-.68,1.74-1.59.18-.69.12-3.65.05-4.27Zm-.73,3.97c-.11.69-.57,1.12-1.26,1.2-.64.07-3.5.11-4.1-.06-.57-.16-.89-.55-.99-1.12-.09-.55-.11-3.28,0-4.01.1-.69.57-1.12,1.26-1.19.7-.08,3.24-.09,3.91.02.69.11,1.12.57,1.2,1.27.07.65.09,3.2-.02,3.9Zm-3.18-4.03c-1.13,0-2.04.91-2.04,2.04,0,1.13.91,2.04,2.04,2.04s2.04-.91,2.04-2.04c0-1.13-.91-2.04-2.04-2.04Zm-.01,3.35c-.73,0-1.31-.6-1.31-1.33,0-.73.6-1.31,1.33-1.31.73,0,1.31.6,1.31,1.33,0,.73-.6,1.31-1.33,1.31Zm2.61-3.43c0,.26-.21.48-.48.48-.26,0-.48-.21-.48-.48,0-.26.21-.48.48-.48.26,0,.48.21.48.48Z"/>
</svg>