<?xml version="1.0" encoding="UTF-8"?>
<svg id="Capa_1" data-name="Capa 1" xmlns="http://www.w3.org/2000/svg" viewBox="0 0 15 15">
  <defs>
    <style>
      .cls-1 {
        fill: #fff;
      }

      .cls-1, .cls-2 {
        stroke-width: 0px;
      }

      .cls-2 {
        fill: #007ab5;
      }
    </style>
  </defs>
  <circle class="cls-2" cx="7.5" cy="7.5" r="7.5"/>
  <path class="cls-1" d="m4.29,5.93h1.52v4.89h-1.52v-4.89Zm.76-2.43c.49,0,.88.39.88.88s-.39.88-.88.88-.88-.4-.88-.88.39-.88.88-.88"/>
  <path class="cls-1" d="m6.77,5.93h1.46v.67h.02c.2-.38.7-.79,1.44-.79,1.54,0,1.82,1.01,1.82,2.33v2.68h-1.52v-2.38c0-.57-.01-1.3-.79-1.3s-.91.62-.91,1.26v2.42h-1.52v-4.89Z"/>
</svg>