<?xml version="1.0" encoding="UTF-8"?>
<svg id="Capa_1" data-name="Capa 1" xmlns="http://www.w3.org/2000/svg" xmlns:xlink="http://www.w3.org/1999/xlink" viewBox="0 0 15 15">
  <defs>
    <style>
      .cls-1 {
        fill: url(#linear-gradient);
      }

      .cls-1, .cls-2, .cls-3, .cls-4 {
        stroke-width: 0px;
      }

      .cls-2 {
        fill: #00c9d0;
      }

      .cls-2, .cls-3, .cls-4 {
        fill-rule: evenodd;
      }

      .cls-3 {
        fill: #ff1753;
      }

      .cls-4 {
        fill: #fff;
      }
    </style>
    <linearGradient id="linear-gradient" x1="2.2" y1="2.2" x2="12.8" y2="12.8" gradientUnits="userSpaceOnUse">
      <stop offset="0" stop-color="#23004a"/>
      <stop offset=".96" stop-color="#010003"/>
      <stop offset="1" stop-color="#000"/>
    </linearGradient>
  </defs>
  <circle class="cls-1" cx="7.5" cy="7.5" r="7.5"/>
  <path class="cls-3" d="m9.07,6.33c.54.39,1.21.62,1.93.62v-1.39c-.14,0-.27-.01-.41-.04v1.09c-.72,0-1.39-.23-1.93-.62v2.83c0,1.42-1.15,2.56-2.56,2.56-.53,0-1.02-.16-1.43-.43.47.48,1.11.77,1.83.77,1.42,0,2.56-1.15,2.56-2.56v-2.83h0Zm.5-1.4c-.28-.3-.46-.7-.5-1.13v-.18h-.38c.1.55.43,1.02.89,1.31h0Zm-4,4.93c-.16-.2-.24-.45-.24-.71,0-.65.53-1.17,1.17-1.17.12,0,.24.02.36.05v-1.42c-.13-.02-.27-.03-.41-.02v1.1c-.12-.04-.24-.06-.36-.05-.65,0-1.17.52-1.17,1.17,0,.46.26.85.65,1.05Z"/>
  <path class="cls-4" d="m8.66,5.99c.54.39,1.21.62,1.93.62v-1.09c-.4-.09-.76-.3-1.03-.59-.46-.29-.79-.76-.89-1.31h-1.01v5.54c0,.65-.53,1.17-1.17,1.17-.38,0-.72-.18-.93-.46-.38-.19-.65-.59-.65-1.05,0-.65.52-1.17,1.17-1.17.12,0,.24.02.36.05v-1.1c-1.39.03-2.51,1.16-2.51,2.56,0,.7.28,1.33.73,1.79.41.27.9.43,1.43.43,1.42,0,2.56-1.15,2.56-2.56v-2.83Z"/>
  <path class="cls-2" d="m10.6,5.52v-.3c-.36,0-.72-.1-1.03-.29.27.3.63.5,1.03.59Zm-1.91-1.9c0-.05-.02-.11-.02-.16v-.18h-1.4v5.54c0,.65-.53,1.17-1.17,1.17-.19,0-.37-.04-.53-.13.21.28.55.46.93.46.65,0,1.17-.52,1.17-1.17V3.62h1.01Zm-2.23,2.98v-.31c-.12-.02-.23-.02-.35-.02-1.42,0-2.56,1.15-2.56,2.56,0,.89.45,1.67,1.14,2.13-.45-.46-.73-1.09-.73-1.79,0-1.4,1.12-2.53,2.51-2.56h0Z"/>
</svg>