<?xml version="1.0" encoding="UTF-8"?>
<svg id="Capa_1" data-name="Capa 1" xmlns="http://www.w3.org/2000/svg" viewBox="0 0 15 15">
  <defs>
    <style>
      .cls-1 {
        fill: #0b8f21;
      }

      .cls-1, .cls-2 {
        stroke-width: 0px;
      }

      .cls-2 {
        fill: #fff;
        fill-rule: evenodd;
      }
    </style>
  </defs>
  <circle class="cls-1" cx="7.5" cy="7.5" r="7.5"/>
  <path class="cls-2" d="m3.54,11.48c.05-.18.09-.34.13-.49.14-.5.28-1,.41-1.5.02-.07.01-.17-.02-.24-1.27-2.41.04-5.34,2.7-5.96,2.41-.57,4.58,1.06,4.98,3.24.41,2.27-1.07,4.43-3.33,4.83-.9.15-1.75.02-2.57-.37-.07-.04-.18-.05-.25-.03-1.09.27-1.82.48-2.04.52Zm.96-.95c.41-.11.79-.2,1.16-.31.11-.03.19-.01.28.04.71.41,1.47.56,2.28.43,1.87-.3,3.15-2.05,2.86-3.91-.3-1.93-2.11-3.23-4.02-2.87-2.31.42-3.54,3-2.39,5.05.13.23.16.41.08.65-.1.29-.17.59-.25.92Z"/>
  <path class="cls-2" d="m8.76,9.27c-.8-.03-2.08-.66-2.96-2.19-.31-.54-.27-1.16.19-1.58.15-.14.35-.11.53-.08.04,0,.09.07.11.13.12.27.23.53.33.8.05.14-.05.28-.25.52-.07.08-.08.15-.03.23.34.57.81.98,1.43,1.23.09.04.16.01.22-.06.33-.4.36-.52.54-.44.83.4.9.41.9.51.03.7-.61.95-1,.93Z"/>
</svg>